ffmpeg version N-102852-g758e2da289 Copyright (c) 2000-2021 the FFmpeg developers
  built with gcc 7 (Ubuntu 7.5.0-3ubuntu1~18.04)
  configuration: --prefix=/home/aleksandr/ffmpeg_debug_build --pkg-config-flags=--static --extra-cflags=-I/home/aleksandr/ffmpeg_debug_build/include --extra-ldflags=-L/home/aleksandr/ffmpeg_debug_build/lib --extra-libs='-lpthread -lm' --bindir=/home/aleksandr/bin_debug --enable-gpl --enable-libass --enable-libfdk-aac --enable-libfreetype --enable-libmp3lame --enable-libopus --enable-libtheora --enable-libvorbis --enable-libvpx --enable-libx264 --enable-libx265 --enable-nonfree
  libavutil      57.  0.100 / 57.  0.100
  libavcodec     59.  3.101 / 59.  3.101
  libavformat    59.  4.100 / 59.  4.100
  libavdevice    59.  0.100 / 59.  0.100
  libavfilter     8.  0.103 /  8.  0.103
  libswscale      6.  0.100 /  6.  0.100
  libswresample   4.  0.100 /  4.  0.100
  libpostproc    56.  0.100 / 56.  0.100
Input #0, matroska,webm, from '../.././Samples/9_AVC_8bits_3840x2160_60_000fps.mkv':
  Metadata:
    encoder         : Haali Matroska Writer b0
  Duration: 00:00:08.33, start: 0.000000, bitrate: 118015 kb/s
  Stream #0:0(eng): Video: h264 (Main), yuv420p(progressive), 3840x2160 [SAR 1:1 DAR 16:9], 60 fps, 60 tbr, 20k tbn (default)
Stream mapping:
  Stream #0:0 -> #0:0 (h264 (native) -> h264 (libx264))
Press [q] to stop, [?] for help
[libx264 @ 0x560091ad0b40] using SAR=1/1
[libx264 @ 0x560091ad0b40] using cpu capabilities: MMX2 SSE2Fast SSSE3 SSE4.2 AVX FMA3 BMI2 AVX2
[libx264 @ 0x560091ad0b40] profile High, level 5.2
[libx264 @ 0x560091ad0b40] 264 - core 152 r2854 e9a5903 - H.264/MPEG-4 AVC codec - Copyleft 2003-2017 - http://www.videolan.org/x264.html - options: cabac=1 ref=3 deblock=1:0:0 analyse=0x3:0x113 me=hex subme=7 psy=1 psy_rd=1.00:0.00 mixed_ref=1 me_range=16 chroma_me=1 trellis=1 8x8dct=1 cqm=0 deadzone=21,11 fast_pskip=1 chroma_qp_offset=-2 threads=6 lookahead_threads=1 sliced_threads=0 nr=0 decimate=1 interlaced=0 bluray_compat=0 constrained_intra=0 bframes=3 b_pyramid=2 b_adapt=1 b_bias=0 direct=1 weightb=1 open_gop=0 weightp=2 keyint=250 keyint_min=25 scenecut=40 intra_refresh=0 rc_lookahead=40 rc=crf mbtree=1 crf=23.0 qcomp=0.60 qpmin=0 qpmax=69 qpstep=4 ip_ratio=1.40 aq=1:1.00
Output #0, mov, to '/home/aleksandr/Debug-release_tests/Debug/Samples/9_AVC_8bits_3840x2160_60_000fps.mkv_tc/output_tc3.mov':
  Metadata:
    encoder         : Lavf59.4.100
  Stream #0:0(eng): Video: h264 (avc1 / 0x31637661), yuv420p(progressive), 3840x2160 [SAR 1:1 DAR 16:9], q=2-31, 60 fps, 15360 tbn (default)
    Metadata:
      encoder         : Lavc59.3.101 libx264
    Side data:
      cpb: bitrate max/min/avg: 0/0/0 buffer size: 0 vbv_delay: N/A
frame=    1 fps=0.0 q=0.0 size=       0kB time=00:00:00.00 bitrate=N/A speed=   0x    frame=   23 fps=0.0 q=0.0 size=       0kB time=00:00:00.00 bitrate=N/A speed=   0x    frame=   42 fps= 36 q=0.0 size=       0kB time=00:00:00.00 bitrate=N/A speed=   0x    frame=   47 fps= 13 q=0.0 size=       0kB time=00:00:00.00 bitrate=N/A speed=   0x    frame=   50 fps= 10 q=0.0 size=       0kB time=00:00:00.00 bitrate=N/A speed=   0x    frame=   55 fps=9.7 q=31.0 size=     768kB time=00:00:00.03 bitrate=188386.8kbits/s speed=0.00591x    frame=   57 fps=8.3 q=31.0 size=    1280kB time=00:00:00.06 bitrate=157136.7kbits/s speed=0.00975x    frame=   61 fps=7.6 q=31.0 size=    1792kB time=00:00:00.13 bitrate=110049.3kbits/s speed=0.0166x    frame=   64 fps=6.5 q=31.0 size=    2304kB time=00:00:00.18 bitrate=102916.4kbits/s speed=0.0187x    frame=   68 fps=6.2 q=31.0 size=    2816kB time=00:00:00.25 bitrate=92251.9kbits/s speed=0.0227x    frame=   73 fps=5.6 q=31.0 size=    3584kB time=00:00:00.33 bitrate=88064.2kbits/s speed=0.0257x    frame=   74 fps=5.1 q=31.0 size=    3584kB time=00:00:00.35 bitrate=83871.3kbits/s speed=0.0241x    frame=   75 fps=4.7 q=31.0 size=    3840kB time=00:00:00.36 bitrate=85778.1kbits/s speed=0.0228x    frame=   78 fps=4.5 q=31.0 size=    4352kB time=00:00:00.41 bitrate=85551.1kbits/s speed=0.0241x    frame=   83 fps=4.6 q=31.0 size=    4864kB time=00:00:00.50 bitrate=79682.0kbits/s speed=0.0276x    frame=   85 fps=4.4 q=31.0 size=    5376kB time=00:00:00.53 bitrate=82565.9kbits/s speed=0.0276x    frame=   88 fps=4.1 q=31.0 size=    5632kB time=00:00:00.58 bitrate=79084.3kbits/s speed=0.0275x    frame=   89 fps=3.9 q=31.0 size=    5888kB time=00:00:00.60 bitrate=80382.6kbits/s speed=0.0264x    frame=   90 fps=3.7 q=31.0 size=    5888kB time=00:00:00.61 bitrate=78210.3kbits/s speed=0.0257x    frame=   95 fps=3.8 q=31.0 size=    6656kB time=00:00:00.70 bitrate=77887.4kbits/s speed=0.0281x    frame=   97 fps=3.7 q=31.0 size=    7168kB time=00:00:00.73 bitrate=80066.4kbits/s speed=0.0282x    frame=  101 fps=3.7 q=31.0 size=    7680kB time=00:00:00.80 bitrate=78637.2kbits/s speed=0.0294x    frame=  103 fps=3.6 q=31.0 size=    7680kB time=00:00:00.83 bitrate=75492.0kbits/s speed=0.0287x    frame=  105 fps=3.5 q=31.0 size=    8192kB time=00:00:00.86 bitrate=77427.8kbits/s speed=0.0286x    frame=  110 fps=3.5 q=31.0 size=    8960kB time=00:00:00.95 bitrate=77258.5kbits/s speed=0.0302x    frame=  111 fps=3.4 q=31.0 size=    8960kB time=00:00:00.96 bitrate=75926.5kbits/s speed=0.0293x    frame=  112 fps=3.3 q=31.0 size=    9216kB time=00:00:00.98 bitrate=76772.3kbits/s speed=0.0287x    frame=  117 fps=3.2 q=31.0 size=    9984kB time=00:00:01.06 bitrate=76672.7kbits/s speed=0.0296x    frame=  118 fps=3.1 q=31.0 size=    9984kB time=00:00:01.08 bitrate=75493.2kbits/s speed=0.0288x    frame=  119 fps=3.0 q=31.0 size=   10240kB time=00:00:01.10 bitrate=76255.8kbits/s speed=0.0281x    frame=  120 fps=3.0 q=31.0 size=   10496kB time=00:00:01.11 bitrate=76995.7kbits/s speed=0.0275x    frame=  122 fps=2.9 q=31.0 size=   10752kB time=00:00:01.15 bitrate=76587.6kbits/s speed=0.0274x    frame=  127 fps=3.0 q=31.0 size=   11264kB time=00:00:01.23 bitrate=74813.6kbits/s speed=0.0287x    frame=  128 fps=2.8 q=31.0 size=   11520kB time=00:00:01.25 bitrate=75493.8kbits/s speed=0.0272x    frame=  129 fps=2.7 q=31.0 size=   11776kB time=00:00:01.26 bitrate=76156.0kbits/s speed=0.0268x    frame=  134 fps=2.8 q=31.0 size=   12544kB time=00:00:01.35 bitrate=76115.4kbits/s speed=0.0278x    frame=  135 fps=2.7 q=31.0 size=   12544kB time=00:00:01.36 bitrate=75187.2kbits/s speed=0.0272x    frame=  136 fps=2.6 q=31.0 size=   12800kB time=00:00:01.38 bitrate=75797.3kbits/s speed=0.0267x    frame=  137 fps=2.6 q=31.0 size=   13056kB time=00:00:01.40 bitrate=76392.9kbits/s speed=0.0264x    frame=  142 fps=2.6 q=31.0 size=   13824kB time=00:00:01.48 bitrate=76342.6kbits/s speed=0.0272x    frame=  144 fps=2.6 q=31.0 size=   14336kB time=00:00:01.51 bitrate=77430.2kbits/s speed=0.027x    frame=  145 fps=2.5 q=31.0 size=   14592kB time=00:00:01.53 bitrate=77956.2kbits/s speed=0.0266x    frame=  146 fps=2.5 q=31.0 size=   14592kB time=00:00:01.55 bitrate=77118.0kbits/s speed=0.0263x    frame=  151 fps=2.5 q=31.0 size=   15616kB time=00:00:01.63 bitrate=78319.3kbits/s speed=0.0273x    frame=  152 fps=2.5 q=31.0 size=   15872kB time=00:00:01.65 bitrate=78799.1kbits/s speed=0.0269x    frame=  157 fps=2.5 q=31.0 size=   17152kB time=00:00:01.73 bitrate=81060.1kbits/s speed=0.0274x    frame=  158 fps=2.4 q=31.0 size=   17152kB time=00:00:01.75 bitrate=80288.1kbits/s speed=0.0271x    frame=  163 fps=2.5 q=31.0 size=   18176kB time=00:00:01.83 bitrate=81214.3kbits/s speed=0.0278x    frame=  164 fps=2.4 q=29.0 size=   18688kB time=00:00:01.85 bitrate=82749.7kbits/s speed=0.0276x    frame=  168 fps=2.4 q=31.0 size=   19456kB time=00:00:01.91 bitrate=83154.0kbits/s speed=0.0279x    frame=  169 fps=2.4 q=31.0 size=   19968kB time=00:00:01.93 bitrate=84606.6kbits/s speed=0.0277x    frame=  174 fps=2.5 q=31.0 size=   21248kB time=00:00:02.01 bitrate=86309.9kbits/s speed=0.0284x    frame=  175 fps=2.4 q=31.0 size=   21760kB time=00:00:02.03 bitrate=87665.2kbits/s speed=0.0282x    frame=  179 fps=2.5 q=31.0 size=   22784kB time=00:00:02.10 bitrate=88876.7kbits/s speed=0.0289x    frame=  180 fps=2.4 q=31.0 size=   22784kB time=00:00:02.11 bitrate=88176.9kbits/s speed=0.0286x    frame=  181 fps=2.4 q=31.0 size=   23040kB time=00:00:02.13 bitrate=88471.1kbits/s speed=0.0282x    frame=  186 fps=2.4 q=31.0 size=   24576kB time=00:00:02.21 bitrate=90821.5kbits/s speed=0.0288x    frame=  187 fps=2.4 q=31.0 size=   24832kB time=00:00:02.23 bitrate=91082.8kbits/s speed=0.0285x    frame=  189 fps=2.4 q=31.0 size=   25088kB time=00:00:02.26 bitrate=90668.5kbits/s speed=0.0283x    frame=  190 fps=2.3 q=31.0 size=   25600kB time=00:00:02.28 bitrate=91843.6kbits/s speed=0.0281x    frame=  195 fps=2.3 q=31.0 size=   26880kB time=00:00:02.36 bitrate=93040.2kbits/s speed=0.0284x    frame=  196 fps=2.3 q=31.0 size=   27136kB time=00:00:02.38 bitrate=93269.5kbits/s speed=0.0281x    frame=  198 fps=2.3 q=31.0 size=   27648kB time=00:00:02.41 bitrate=93718.6kbits/s speed=0.0279x    frame=  199 fps=2.3 q=31.0 size=   27904kB time=00:00:02.43 bitrate=93938.5kbits/s speed=0.0277x    frame=  204 fps=2.3 q=31.0 size=   29184kB time=00:00:02.51 bitrate=94994.5kbits/s speed=0.0282x    frame=  205 fps=2.3 q=31.0 size=   29440kB time=00:00:02.53 bitrate=95197.3kbits/s speed=0.0279x    frame=  206 fps=2.2 q=31.0 size=   29696kB time=00:00:02.55 bitrate=95397.5kbits/s speed=0.0276x    frame=  207 fps=2.2 q=31.0 size=   29952kB time=00:00:02.56 bitrate=95595.1kbits/s speed=0.0274x    frame=  212 fps=2.2 q=31.0 size=   31232kB time=00:00:02.65 bitrate=96545.9kbits/s speed=0.0278x    frame=  215 fps=2.2 q=31.0 size=   32256kB time=00:00:02.70 bitrate=97864.8kbits/s speed=0.0281x    frame=  217 fps=2.2 q=31.0 size=   32512kB time=00:00:02.73 bitrate=97438.6kbits/s speed=0.0279x    frame=  218 fps=2.2 q=31.0 size=   33024kB time=00:00:02.75 bitrate=98373.3kbits/s speed=0.0276x    frame=  219 fps=2.2 q=31.0 size=   33280kB time=00:00:02.76 bitrate=98538.7kbits/s speed=0.0273x    frame=  220 fps=2.1 q=31.0 size=   33536kB time=00:00:02.78 bitrate=98702.1kbits/s speed=0.0271x    frame=  225 fps=2.2 q=31.0 size=   34816kB time=00:00:02.86 bitrate=99490.6kbits/s speed=0.0277x    frame=  227 fps=2.2 q=31.0 size=   35584kB time=00:00:02.90 bitrate=100516.5kbits/s speed=0.0277x    frame=  231 fps=2.2 q=31.0 size=   36608kB time=00:00:02.96 bitrate=101085.3kbits/s speed=0.0279x    frame=  234 fps=2.2 q=31.0 size=   37376kB time=00:00:03.01 bitrate=101495.4kbits/s speed=0.0281x    frame=  237 fps=2.2 q=31.0 size=   38144kB time=00:00:03.06 bitrate=101892.2kbits/s speed=0.0284x    frame=  239 fps=2.2 q=31.0 size=   38912kB time=00:00:03.10 bitrate=102826.0kbits/s speed=0.0282x    frame=  243 fps=2.2 q=31.0 size=   39936kB time=00:00:03.16 bitrate=103310.3kbits/s speed=0.0285x    frame=  245 fps=2.2 q=31.0 size=   40448kB time=00:00:03.20 bitrate=103544.9kbits/s speed=0.0287x    frame=  246 fps=2.2 q=31.0 size=   40704kB time=00:00:03.21 bitrate=103660.3kbits/s speed=0.0287x    frame=  247 fps=2.2 q=31.0 size=   40960kB time=00:00:03.23 bitrate=103774.6kbits/s speed=0.0287x    frame=  250 fps=2.2 q=31.0 size=   41728kB time=00:00:03.28 bitrate=104110.5kbits/s speed=0.029x    frame=  251 fps=2.2 q=31.0 size=   42240kB time=00:00:03.30 bitrate=104855.6kbits/s speed=0.0288x    frame=  252 fps=2.2 q=31.0 size=   42240kB time=00:00:03.31 bitrate=104328.7kbits/s speed=0.0288x    frame=  255 fps=2.2 q=31.0 size=   43264kB time=00:00:03.36 bitrate=105270.9kbits/s speed=0.029x    frame=  259 fps=2.2 q=31.0 size=   44544kB time=00:00:03.43 bitrate=106280.9kbits/s speed=0.0291x    frame=  262 fps=2.2 q=31.0 size=   45312kB time=00:00:03.48 bitrate=106561.5kbits/s speed=0.0294x    frame=  263 fps=2.2 q=31.0 size=   45568kB time=00:00:03.50 bitrate=106653.3kbits/s speed=0.0294x    frame=  264 fps=2.2 q=31.0 size=   45824kB time=00:00:03.51 bitrate=106744.1kbits/s speed=0.0293x    frame=  267 fps=2.2 q=31.0 size=   46848kB time=00:00:03.56 bitrate=107599.6kbits/s speed=0.0294x    frame=  270 fps=2.2 q=31.0 size=   47616kB time=00:00:03.61 bitrate=107851.7kbits/s speed=0.0297x    frame=  271 fps=2.2 q=31.0 size=   47872kB time=00:00:03.63 bitrate=107934.1kbits/s speed=0.0296x    frame=  273 fps=2.2 q=31.0 size=   48384kB time=00:00:03.66 bitrate=108096.8kbits/s speed=0.0298x    frame=  275 fps=2.2 q=31.0 size=   49152kB time=00:00:03.70 bitrate=108823.4kbits/s speed=0.0297x    frame=  279 fps=2.2 q=31.0 size=   50176kB time=00:00:03.76 bitrate=109124.3kbits/s speed=0.0299x    frame=  280 fps=2.2 q=31.0 size=   50432kB time=00:00:03.78 bitrate=109197.9kbits/s speed=0.0299x    frame=  283 fps=2.2 q=31.0 size=   51456kB time=00:00:03.83 bitrate=109961.9kbits/s speed=0.0301x    frame=  287 fps=2.2 q=31.0 size=   52480kB time=00:00:03.90 bitrate=110233.1kbits/s speed=0.0301x    frame=  290 fps=2.2 q=31.0 size=   53248kB time=00:00:03.95 bitrate=110430.6kbits/s speed=0.0303x    frame=  293 fps=2.2 q=31.0 size=   54016kB time=00:00:04.00 bitrate=110623.0kbits/s speed=0.0305x    frame=  294 fps=2.2 q=31.0 size=   54528kB time=00:00:04.01 bitrate=111208.2kbits/s speed=0.0302x    frame=  299 fps=2.2 q=31.0 size=   55808kB time=00:00:04.10 bitrate=111505.4kbits/s speed=0.0304x    frame=  305 fps=2.2 q=31.0 size=   58368kB time=00:00:04.20 bitrate=113843.7kbits/s speed=0.0308x    frame=  306 fps=2.2 q=31.0 size=   58624kB time=00:00:04.21 bitrate=113891.1kbits/s speed=0.0308x    frame=  307 fps=2.2 q=31.0 size=   58880kB time=00:00:04.23 bitrate=113938.1kbits/s speed=0.0308x    frame=  310 fps=2.2 q=31.0 size=   59648kB time=00:00:04.28 bitrate=114076.9kbits/s speed=0.0309x    frame=  313 fps=2.2 q=31.0 size=   60416kB time=00:00:04.33 bitrate=114212.5kbits/s speed=0.0311x    frame=  314 fps=2.2 q=31.0 size=   60672kB time=00:00:04.35 bitrate=114257.0kbits/s speed=0.031x    frame=  318 fps=2.2 q=31.0 size=   61696kB time=00:00:04.41 bitrate=114431.6kbits/s speed=0.0312x    frame=  322 fps=2.2 q=31.0 size=   62976kB time=00:00:04.48 bitrate=115068.9kbits/s speed=0.0313x    frame=  324 fps=2.3 q=31.0 size=   63232kB time=00:00:04.51 bitrate=114684.0kbits/s speed=0.0314x    frame=  327 fps=2.3 q=31.0 size=   64000kB time=00:00:04.56 bitrate=114806.0kbits/s speed=0.0316x    frame=  329 fps=2.3 q=31.0 size=   64512kB time=00:00:04.60 bitrate=114885.9kbits/s speed=0.0317x    frame=  330 fps=2.3 q=31.0 size=   64768kB time=00:00:04.61 bitrate=114925.4kbits/s speed=0.0315x    frame=  334 fps=2.3 q=31.0 size=   65792kB time=00:00:04.68 bitrate=115080.6kbits/s speed=0.0317x    frame=  338 fps=2.3 q=31.0 size=   66816kB time=00:00:04.75 bitrate=115231.5kbits/s speed=0.0318x    frame=  340 fps=2.3 q=31.0 size=   67072kB time=00:00:04.78 bitrate=114866.9kbits/s speed=0.0319x    frame=  342 fps=2.3 q=31.0 size=   67840kB time=00:00:04.81 bitrate=115378.1kbits/s speed=0.032x    frame=  345 fps=2.3 q=31.0 size=   68608kB time=00:00:04.86 bitrate=115485.5kbits/s speed=0.0323x    frame=  346 fps=2.3 q=31.0 size=   68864kB time=00:00:04.88 bitrate=115520.8kbits/s speed=0.0321x    frame=  350 fps=2.3 q=31.0 size=   69632kB time=00:00:04.95 bitrate=115236.0kbits/s speed=0.0323x    frame=  353 fps=2.3 q=31.0 size=   70400kB time=00:00:05.00 bitrate=115341.9kbits/s speed=0.0325x    frame=  354 fps=2.3 q=31.0 size=   70656kB time=00:00:05.01 bitrate=115376.8kbits/s speed=0.0324x    frame=  358 fps=2.3 q=31.0 size=   71680kB time=00:00:05.08 bitrate=115513.8kbits/s speed=0.0325x    frame=  361 fps=2.3 q=31.0 size=   72192kB time=00:00:05.13 bitrate=115205.8kbits/s speed=0.0327x    frame=  362 fps=2.3 q=31.0 size=   72448kB time=00:00:05.15 bitrate=115240.2kbits/s speed=0.0327x    frame=  366 fps=2.3 q=31.0 size=   73472kB time=00:00:05.21 bitrate=115375.5kbits/s speed=0.0327x    frame=  370 fps=2.3 q=31.0 size=   74240kB time=00:00:05.28 bitrate=115110.5kbits/s speed=0.033x    frame=  373 fps=2.3 q=31.0 size=   75008kB time=00:00:05.33 bitrate=115210.9kbits/s speed=0.0332x    frame=  374 fps=2.3 q=31.0 size=   75264kB time=00:00:05.35 bitrate=115244.0kbits/s speed=0.033x    frame=  378 fps=2.3 q=31.0 size=   76032kB time=00:00:05.41 bitrate=114987.1kbits/s speed=0.0332x    frame=  382 fps=2.3 q=31.0 size=   77056kB time=00:00:05.48 bitrate=115119.0kbits/s speed=0.0332x    frame=  385 fps=2.3 q=31.0 size=   77568kB time=00:00:05.53 bitrate=114836.7kbits/s speed=0.0334x    frame=  387 fps=2.3 q=31.0 size=   77824kB time=00:00:05.56 bitrate=114525.8kbits/s speed=0.0335x    frame=  390 fps=2.3 q=31.0 size=   78592kB time=00:00:05.61 bitrate=114626.4kbits/s speed=0.0335x    frame=  394 fps=2.3 q=31.0 size=   79616kB time=00:00:05.68 bitrate=114757.9kbits/s speed=0.0337x    frame=  398 fps=2.3 q=31.0 size=   80384kB time=00:00:05.75 bitrate=114521.5kbits/s speed=0.0337x    frame=  402 fps=2.3 q=31.0 size=   81152kB time=00:00:05.81 bitrate=114290.5kbits/s speed=0.0339x    frame=  405 fps=2.4 q=31.0 size=   81664kB time=00:00:05.86 bitrate=114031.4kbits/s speed=0.0341x    frame=  406 fps=2.3 q=31.0 size=   81920kB time=00:00:05.88 bitrate=114064.9kbits/s speed=0.0339x    frame=  410 fps=2.4 q=31.0 size=   82688kB time=00:00:05.95 bitrate=113844.2kbits/s speed=0.0342x    frame=  414 fps=2.4 q=31.0 size=   83456kB time=00:00:06.01 bitrate=113628.4kbits/s speed=0.0342x    frame=  416 fps=2.4 q=31.0 size=   83712kB time=00:00:06.05 bitrate=113349.0kbits/s speed=0.0343x    frame=  419 fps=2.4 q=31.0 size=   84480kB time=00:00:06.10 bitrate=113451.3kbits/s speed=0.0344x    frame=  422 fps=2.4 q=31.0 size=   85248kB time=00:00:06.15 bitrate=113552.0kbits/s speed=0.0344x    frame=  426 fps=2.4 q=31.0 size=   86016kB time=00:00:06.21 bitrate=113346.3kbits/s speed=0.0346x    frame=  430 fps=2.4 q=31.0 size=   86784kB time=00:00:06.28 bitrate=113145.0kbits/s speed=0.0346x    frame=  434 fps=2.4 q=31.0 size=   87552kB time=00:00:06.35 bitrate=112947.9kbits/s speed=0.0348x    frame=  438 fps=2.4 q=31.0 size=   88320kB time=00:00:06.41 bitrate=112754.9kbits/s speed=0.0349x    frame=  441 fps=2.4 q=31.0 size=   88832kB time=00:00:06.46 bitrate=112531.7kbits/s speed=0.035x    frame=  442 fps=2.4 q=31.0 size=   89088kB time=00:00:06.48 bitrate=112565.8kbits/s speed=0.035x    frame=  446 fps=2.4 q=31.0 size=   89856kB time=00:00:06.55 bitrate=112380.7kbits/s speed=0.0351x    frame=  450 fps=2.4 q=31.0 size=   90624kB time=00:00:06.61 bitrate=112199.2kbits/s speed=0.0353x    frame=  454 fps=2.4 q=31.0 size=   91392kB time=00:00:06.68 bitrate=112021.4kbits/s speed=0.0353x    frame=  458 fps=2.4 q=31.0 size=   92160kB time=00:00:06.75 bitrate=111847.1kbits/s speed=0.0354x    frame=  462 fps=2.4 q=31.0 size=   92928kB time=00:00:06.81 bitrate=111676.2kbits/s speed=0.0355x    frame=  464 fps=2.4 q=31.0 size=   92928kB time=00:00:06.85 bitrate=111132.7kbits/s speed=0.0356x    frame=  466 fps=2.4 q=31.0 size=   93440kB time=00:00:06.88 bitrate=111203.9kbits/s speed=0.0356x    frame=  470 fps=2.4 q=31.0 size=   94208kB time=00:00:06.95 bitrate=111042.4kbits/s speed=0.0357x    frame=  474 fps=2.4 q=31.0 size=   94976kB time=00:00:07.01 bitrate=110884.1kbits/s speed=0.0358x    frame=  478 fps=2.4 q=31.0 size=   95744kB time=00:00:07.08 bitrate=110728.7kbits/s speed=0.0359x    frame=  482 fps=2.4 q=31.0 size=   96512kB time=00:00:07.15 bitrate=110576.1kbits/s speed=0.0361x    frame=  485 fps=2.4 q=31.0 size=   97024kB time=00:00:07.20 bitrate=110390.8kbits/s speed=0.0362x    frame=  486 fps=2.4 q=31.0 size=   97280kB time=00:00:07.21 bitrate=110426.4kbits/s speed=0.0361x    frame=  490 fps=2.4 q=31.0 size=   97792kB time=00:00:07.28 bitrate=109991.6kbits/s speed=0.0362x    frame=  494 fps=2.4 q=31.0 size=   98816kB time=00:00:07.35 bitrate=110135.2kbits/s speed=0.0364x    frame=  496 fps=2.5 q=31.0 size=   99072kB time=00:00:07.38 bitrate=109922.0kbits/s speed=0.0365x    frame=  498 fps=2.4 q=31.0 size=   99584kB time=00:00:07.41 bitrate=109993.5kbits/s speed=0.0365x    frame=  500 fps=2.3 q=-1.0 Lsize=  108910kB time=00:00:08.28 bitrate=107708.4kbits/s speed=0.038x    
video:108903kB audio:0kB subtitle:0kB other streams:0kB global headers:0kB muxing overhead: 0.006776%
[libx264 @ 0x560091ad0b40] frame I:4     Avg QP:28.90  size:629751
[libx264 @ 0x560091ad0b40] frame P:126   Avg QP:31.19  size:376756
[libx264 @ 0x560091ad0b40] frame B:370   Avg QP:32.33  size:166285
[libx264 @ 0x560091ad0b40] consecutive B-frames:  1.0%  0.8%  0.6% 97.6%
[libx264 @ 0x560091ad0b40] mb I  I16..4: 10.2% 48.3% 41.5%
[libx264 @ 0x560091ad0b40] mb P  I16..4:  2.2% 19.4%  6.0%  P16..4: 35.4% 28.9%  7.4%  0.0%  0.0%    skip: 0.8%
[libx264 @ 0x560091ad0b40] mb B  I16..4:  0.1%  1.2%  0.5%  B16..8: 45.0% 11.6%  3.5%  direct:12.4%  skip:25.6%  L0:42.8% L1:44.8% BI:12.3%
[libx264 @ 0x560091ad0b40] 8x8 transform intra:68.0% inter:53.3%
[libx264 @ 0x560091ad0b40] coded y,uvDC,uvAC intra: 88.1% 84.8% 44.6% inter: 42.6% 33.2% 3.4%
[libx264 @ 0x560091ad0b40] i16 v,h,dc,p:  1% 69%  6% 24%
[libx264 @ 0x560091ad0b40] i8 v,h,dc,ddl,ddr,vr,hd,vl,hu:  3% 41%  7%  4%  6%  3% 17%  3% 16%
[libx264 @ 0x560091ad0b40] i4 v,h,dc,ddl,ddr,vr,hd,vl,hu:  4% 40% 10%  5%  7%  3% 15%  3% 13%
[libx264 @ 0x560091ad0b40] i8c dc,h,v,p: 42% 45%  5%  8%
[libx264 @ 0x560091ad0b40] Weighted P-Frames: Y:1.6% UV:0.0%
[libx264 @ 0x560091ad0b40] ref P L0: 48.9% 16.6% 22.8% 11.6%  0.1%
[libx264 @ 0x560091ad0b40] ref B L0: 92.8%  5.1%  2.0%
[libx264 @ 0x560091ad0b40] ref B L1: 99.2%  0.8%
[libx264 @ 0x560091ad0b40] kb/s:107055.08
	Command being timed: "/home/aleksandr/bin_debug/ffmpeg -i ../.././Samples/9_AVC_8bits_3840x2160_60_000fps.mkv -c:v libx264 -f mov /home/aleksandr/Debug-release_tests/Debug/Samples/9_AVC_8bits_3840x2160_60_000fps.mkv_tc/output_tc3.mov"
	User time (seconds): 667.58
	System time (seconds): 1.47
	Percent of CPU this job got: 306%
	Elapsed (wall clock) time (h:mm:ss or m:ss): 3:37.94
	Average shared text size (kbytes): 0
	Average unshared data size (kbytes): 0
	Average stack size (kbytes): 0
	Average total size (kbytes): 0
	Maximum resident set size (kbytes): 2103424
	Average resident set size (kbytes): 0
	Major (requiring I/O) page faults: 12
	Minor (reclaiming a frame) page faults: 183761
	Voluntary context switches: 25738
	Involuntary context switches: 52729
	Swaps: 0
	File system inputs: 8056
	File system outputs: 217976
	Socket messages sent: 0
	Socket messages received: 0
	Signals delivered: 0
	Page size (bytes): 4096
	Exit status: 0
